<svg xmlns="http://www.w3.org/2000/svg" width="37" height="37" viewBox="37" fill="none">
<path d="M35.4561 17.7281C35.4561 15.4 34.9976 13.0947 34.1067 10.9438C33.2157 8.79296 31.9099 6.83863 30.2637 5.19243C28.6175 3.54622 26.6632 2.24039 24.5123 1.34947C22.3614 0.458549 20.0561 -1.08021e-06 17.7281 -7.74918e-07C15.4 -4.69627e-07 13.0947 0.45855 10.9438 1.34947C8.79296 2.24039 6.83863 3.54623 5.19243 5.19243C3.54622 6.83863 2.24039 8.79296 1.34947 10.9438C0.45855 13.0947 3.67864e-07 15.4 7.74918e-07 17.7281L35.4561 17.7281Z" fill="#F9F7F6"/>
<path d="M15.8621 36.3888C13.779 36.3888 11.7164 35.9785 9.79196 35.1814C7.8675 34.3842 6.11889 33.2159 4.64597 31.7429C3.17305 30.27 2.00467 28.5214 1.20753 26.597C0.410394 24.6725 0.00011158 22.6099 0.00011158 20.5269H15.8621L15.8621 36.3888Z" fill="#F9F7F6"/>
<circle r="8.3975" transform="matrix(-1 0 0 1 27.0588 28.4571)" fill="#F9F7F6"/>
<rect width="17.7281" height="18.6611" transform="matrix(4.37114e-08 1 1 -4.37114e-08 16.7952 0)" fill="#F9F7F6"/>
</svg>